<svg xmlns="http://www.w3.org/2000/svg" class="font-svg-class" viewBox="0 0 441.53 108.56" fill="rgb(255,255,255)">
                <g class="boxpath" transform="matrix(1 0 0 1 -24.966205596923828 101.35511779785156)"><defs><filter id="flou" x="-10%" y="-10%" width="120%" height="200px" color-interpolation-filters="sRGB"><feGaussianBlur in="SourceGraphic" stdDeviation="1"/></filter></defs><g transform="translate(0.5497598968142251,0.5497598968142251)" fill="rgb(0,0,0)" opacity="0.30" filter="url(#flou)"><path xmlns="http://www.w3.org/2000/svg" d="M62.51-19.04L62.51-19.04Q63.20-17.93 63.90-17.03Q64.59-16.12 65.29-15.15L65.29-15.15Q64.04-13.90 62.65-13.07Q61.26-12.23 59.94-11.40Q58.62-10.56 57.44-9.45Q56.26-8.34 55.70-6.53L55.70-6.53Q63.20-6.53 69.74-8.62Q76.27-10.70 83.36-13.34L83.36-13.34Q80.16-19.04 79.89-25.09Q79.61-31.14 81.34-37.39Q83.08-43.65 86.35-49.90Q89.62-56.16 93.51-62.20Q97.40-68.25 101.50-73.88Q105.60-79.51 109.08-84.65L109.08-84.65Q109.63-85.49 110.26-86.46Q110.88-87.43 111.72-88.27L111.72-88.27Q104.77-87.15 96.70-83.05Q88.64-78.95 81.28-73.39Q73.91-67.83 68.14-61.51Q62.37-55.18 60.29-49.62L60.29-49.62Q56.95-51.15 55.91-53.38Q54.87-55.60 55.28-58.03Q55.70-60.47 57.16-62.97Q58.62-65.47 60.29-67.69L60.29-67.69Q65.29-74.37 72.31-80.06Q79.33-85.76 87.53-90.28Q95.73-94.80 104.77-98.13Q113.80-101.47 122.84-103.35Q131.87-105.22 140.63-105.71Q149.38-106.20 157.03-105.08L157.03-105.08Q161.76-104.39 165.93-100.71Q170.10-97.02 172.67-91.95Q175.24-86.88 175.66-80.97Q176.07-75.06 173.29-70.06L173.29-70.06Q165.93-56.57 155.29-45.66Q144.66-34.75 131.73-26.20Q118.81-17.65 103.93-11.26Q89.06-4.87 73.35-0.28L73.35-0.28Q70.57 0.42 67.58 0.63Q64.59 0.83 61.54 0.97L61.54 0.97Q59.31 1.11 57.58 0.42Q55.84-0.28 54.52-1.39Q53.20-2.50 52.15-3.96Q51.11-5.42 50.28-6.95L50.28-6.95Q49.44-9.45 50.63-11.40Q51.81-13.34 53.89-14.87Q55.98-16.40 58.41-17.44Q60.84-18.49 62.51-19.04ZM88.22-15.99L88.22-15.99Q95.31-18.90 103.10-22.87Q110.88-26.83 118.67-31.76Q126.45-36.70 133.89-42.33Q141.32-47.96 147.72-54.21Q154.11-60.47 159.12-67.14Q164.12-73.81 167.04-80.76L167.04-80.76Q167.87-82.84 168.36-84.86Q168.85-86.88 168.64-88.68Q168.43-90.49 167.32-91.95Q166.20-93.41 163.98-94.24L163.98-94.24Q155.92-97.16 147.86-96.74Q139.79-96.33 131.45-94.38L131.45-94.38Q132.98-92.57 132.50-91.32Q132.01-90.07 130.90-88.68L130.90-88.68Q126.31-82.84 121.72-77.15Q117.14-71.45 113.11-65.33L113.11-65.33Q109.49-60.05 105.60-53.93Q101.71-47.82 98.23-41.28Q94.76-34.75 92.05-28.29Q89.34-21.82 88.22-15.99ZM245.02-61.58L245.02-61.58Q238.35-55.04 231.60-47.82Q224.86-40.59 218.95-32.67Q213.05-24.74 208.11-16.33Q203.18-7.92 200.12 0.97L200.12 0.97Q197.62 0.14 196.16-0.49Q194.70-1.11 193.93-2.02Q193.17-2.92 193.17-4.31Q193.17-5.70 193.73-7.92L193.73-7.92Q196.37-19.88 200.81-30.79Q205.26-41.70 210.75-51.92Q216.24-62.13 222.29-71.79Q228.34-81.45 234.45-91.05L234.45-91.05Q225.28-87.57 215.55-81.45Q205.82-75.34 197.34-67.42Q188.86-59.49 182.61-50.25Q176.35-41.01 174.27-31.14L174.27-31.14Q169.68-31.55 167.39-34.12Q165.09-36.70 166.20-40.45L166.20-40.45Q168.29-47.54 172.53-54.35Q176.77-61.16 182.40-67.42Q188.03-73.67 194.70-79.30Q201.37-84.93 208.39-89.59Q215.41-94.24 222.36-97.86Q229.31-101.47 235.56-103.69L235.56-103.69Q237.79-104.11 239.53-103.56Q241.26-103.00 242.79-101.05L242.79-101.05Q242.93-100.78 243.00-100.71Q243.07-100.64 243.21-100.36L243.21-100.36Q245.30-98.00 246.48-96.40Q247.66-94.80 247.87-93.27Q248.08-91.74 247.38-89.86Q246.69-87.99 245.16-85.35L245.16-85.35Q240.43-76.73 235.36-68.94Q230.28-61.16 226.67-52.96L226.67-52.96Q227.36-53.79 228.13-54.49Q228.89-55.18 229.59-55.88L229.59-55.88Q234.59-60.47 239.60-65.26Q244.60-70.06 249.60-74.50L249.60-74.50Q252.25-76.73 253.98-76.52Q255.72-76.31 258.08-74.23L258.08-74.23Q259.20-73.39 259.68-72.14Q260.17-70.89 259.47-69.36L259.47-69.36Q258.36-66.86 257.46-64.50Q256.55-62.13 255.44-59.77L255.44-59.77Q253.08-53.79 250.65-48.30Q248.21-42.81 245.99-37.11L245.99-37.11Q256.00-45.87 264.89-55.25Q273.79-64.64 282.48-73.81Q291.17-82.98 300.20-91.60Q309.24-100.22 319.66-107.31L319.66-107.31Q321.19-108.14 322.79-108.49Q324.39-108.84 325.92-107.31L325.92-107.31Q327.86-105.78 328.97-104.11Q330.09-102.44 329.25-99.94L329.25-99.94Q324.11-87.57 317.78-75.69Q311.46-63.80 305.69-51.71Q299.92-39.62 295.54-27.17Q291.17-14.73 290.05-1.25L290.05-1.25Q283.66-2.50 281.50-6.53Q279.35-10.56 279.84-16.33Q280.32-22.10 282.76-28.77Q285.19-35.45 288.11-41.84L288.11-41.84Q295.20-57.41 302.98-72.00Q310.76-86.60 319.10-100.08L319.10-100.08Q309.93-93.96 301.45-85.42Q292.97-76.87 284.77-67.62Q276.57-58.38 268.30-49.28Q260.03-40.17 251.13-32.67L251.13-32.67Q249.19-31.14 247.38-30.79Q245.57-30.44 243.21-31.97L243.21-31.97Q240.99-33.36 240.29-35.10Q239.60-36.84 239.87-39.06L239.87-39.06Q241.54-45.04 243.84-50.39Q246.13-55.74 248.49-61.02L248.49-61.02Q249.47-63.52 249.53-64.36Q249.60-65.19 248.98-64.98Q248.35-64.77 247.31-63.80Q246.27-62.83 245.02-61.58ZM334.95-18.77L334.95-18.77Q335.78-17.65 336.48-16.75Q337.17-15.85 338.01-14.73L338.01-14.73Q335.64-13.21 331.89-10.70Q328.14-8.20 324.59-5.14Q321.05-2.08 318.83 1.18Q316.60 4.45 317.44 7.51L317.44 7.51Q327.44 7.92 338.49 4.93Q349.54 1.95 360.04-3.41Q370.53-8.76 379.71-15.71Q388.88-22.66 395.28-30.02L395.28-30.02Q397.92-33.36 400.00-37.39L400.00-37.39Q396.81-38.50 392.36-38.57Q387.91-38.64 384.02-38.23L384.02-38.23Q371.09-36.84 359.07-35.51Q347.04-34.19 335.09-32.80L335.09-32.80Q330.92-32.53 327.51-32.73Q324.11-32.94 321.26-34.05Q318.41-35.17 315.91-37.32Q313.40-39.48 311.04-43.09L311.04-43.09Q309.65-46.01 310.49-48.86Q311.32-51.71 312.99-54.07L312.99-54.07Q318.96-61.99 327.93-68.87Q336.90-75.76 347.39-81.52Q357.88-87.29 369.07-91.88Q380.26-96.47 390.62-99.73Q400.98-103.00 409.66-104.95Q418.35-106.89 423.91-107.31L423.91-107.31Q430.44-107.86 434.75-104.11L434.75-104.11Q436.84-102.30 438.78-99.45Q440.73-96.61 441.42-93.96L441.42-93.96Q441.98-91.18 439.76-88.27L439.76-88.27Q434.89-82.43 427.73-77.28Q420.57-72.14 412.93-67.83Q405.28-63.52 397.99-60.26Q390.69-56.99 385.55-54.91L385.55-54.91Q383.74-54.21 382.63-53.93Q381.51-53.65 380.54-53.93Q379.57-54.21 378.53-55.18Q377.48-56.16 375.95-57.82L375.95-57.82Q382.90-61.99 389.99-65.96Q397.08-69.92 403.96-74.30Q410.84-78.67 417.31-83.54Q423.77-88.40 429.61-94.52L429.61-94.52Q414.74-92.57 399.93-88.13Q385.13-83.68 371.16-77.01Q357.19-70.33 344.61-61.72Q332.03-53.10 321.61-43.09L321.61-43.09Q329.67-41.98 337.94-42.33Q346.21-42.67 354.62-43.58Q363.03-44.48 371.30-45.31Q379.57-46.15 387.63-46.15L387.63-46.15Q393.61-46.01 398.54-43.99Q403.48-41.98 405.70-36.42L405.70-36.42Q406.53-33.64 405.14-30.58Q403.75-27.52 401.39-24.74L401.39-24.74Q395.41-17.65 386.10-10.77Q376.79-3.89 366.22 1.60Q355.66 7.09 344.96 10.63Q334.25 14.18 325.50 14.60L325.50 14.60Q322.86 14.87 319.94 13.76Q317.02 12.65 314.86 10.63Q312.71 8.62 311.74 6.05Q310.76 3.48 311.88 0.97L311.88 0.97Q313.13-1.95 315.56-4.73Q317.99-7.51 321.12-9.94Q324.25-12.37 327.79-14.60Q331.34-16.82 334.95-18.77Z"/></g><path d="M62.51-19.04L62.51-19.04Q63.20-17.93 63.90-17.03Q64.59-16.12 65.29-15.15L65.29-15.15Q64.04-13.90 62.65-13.07Q61.26-12.23 59.94-11.40Q58.62-10.56 57.44-9.45Q56.26-8.34 55.70-6.53L55.70-6.53Q63.20-6.53 69.74-8.62Q76.27-10.70 83.36-13.34L83.36-13.34Q80.16-19.04 79.89-25.09Q79.61-31.14 81.34-37.39Q83.08-43.65 86.35-49.90Q89.62-56.16 93.51-62.20Q97.40-68.25 101.50-73.88Q105.60-79.51 109.08-84.65L109.08-84.65Q109.63-85.49 110.26-86.46Q110.88-87.43 111.72-88.27L111.72-88.27Q104.77-87.15 96.70-83.05Q88.64-78.95 81.28-73.39Q73.91-67.83 68.14-61.51Q62.37-55.18 60.29-49.62L60.29-49.62Q56.95-51.15 55.91-53.38Q54.87-55.60 55.28-58.03Q55.70-60.47 57.16-62.97Q58.62-65.47 60.29-67.69L60.29-67.69Q65.29-74.37 72.31-80.06Q79.33-85.76 87.53-90.28Q95.73-94.80 104.77-98.13Q113.80-101.47 122.84-103.35Q131.87-105.22 140.63-105.71Q149.38-106.20 157.03-105.08L157.03-105.08Q161.76-104.39 165.93-100.71Q170.10-97.02 172.67-91.95Q175.24-86.88 175.66-80.97Q176.07-75.06 173.29-70.06L173.29-70.06Q165.93-56.57 155.29-45.66Q144.66-34.75 131.73-26.20Q118.81-17.65 103.93-11.26Q89.06-4.87 73.35-0.28L73.35-0.28Q70.57 0.42 67.58 0.63Q64.59 0.83 61.54 0.97L61.54 0.97Q59.31 1.11 57.58 0.42Q55.84-0.28 54.52-1.39Q53.20-2.50 52.15-3.96Q51.11-5.42 50.28-6.95L50.28-6.95Q49.44-9.45 50.63-11.40Q51.81-13.34 53.89-14.87Q55.98-16.40 58.41-17.44Q60.84-18.49 62.51-19.04ZM88.22-15.99L88.22-15.99Q95.31-18.90 103.10-22.87Q110.88-26.83 118.67-31.76Q126.45-36.70 133.89-42.33Q141.32-47.96 147.72-54.21Q154.11-60.47 159.12-67.14Q164.12-73.81 167.04-80.76L167.04-80.76Q167.87-82.84 168.36-84.86Q168.85-86.88 168.64-88.68Q168.43-90.49 167.32-91.95Q166.20-93.41 163.98-94.24L163.98-94.24Q155.92-97.16 147.86-96.74Q139.79-96.33 131.45-94.38L131.45-94.38Q132.98-92.57 132.50-91.32Q132.01-90.07 130.90-88.68L130.90-88.68Q126.31-82.84 121.72-77.15Q117.14-71.45 113.11-65.33L113.11-65.33Q109.49-60.05 105.60-53.93Q101.71-47.82 98.23-41.28Q94.76-34.75 92.05-28.29Q89.34-21.82 88.22-15.99ZM245.02-61.58L245.02-61.58Q238.35-55.04 231.60-47.82Q224.86-40.59 218.95-32.67Q213.05-24.74 208.11-16.33Q203.18-7.92 200.12 0.97L200.12 0.97Q197.62 0.14 196.16-0.49Q194.70-1.11 193.93-2.02Q193.17-2.92 193.17-4.31Q193.17-5.70 193.73-7.92L193.73-7.92Q196.37-19.88 200.81-30.79Q205.26-41.70 210.75-51.92Q216.24-62.13 222.29-71.79Q228.34-81.45 234.45-91.05L234.45-91.05Q225.28-87.57 215.55-81.45Q205.82-75.34 197.34-67.42Q188.86-59.49 182.61-50.25Q176.35-41.01 174.27-31.14L174.27-31.14Q169.68-31.55 167.39-34.12Q165.09-36.70 166.20-40.45L166.20-40.45Q168.29-47.54 172.53-54.35Q176.77-61.16 182.40-67.42Q188.03-73.67 194.70-79.30Q201.37-84.93 208.39-89.59Q215.41-94.24 222.36-97.86Q229.31-101.47 235.56-103.69L235.56-103.69Q237.79-104.11 239.53-103.56Q241.26-103.00 242.79-101.05L242.79-101.05Q242.93-100.78 243.00-100.71Q243.07-100.64 243.21-100.36L243.21-100.36Q245.30-98.00 246.48-96.40Q247.66-94.80 247.87-93.27Q248.08-91.74 247.38-89.86Q246.69-87.99 245.16-85.35L245.16-85.35Q240.43-76.73 235.36-68.94Q230.28-61.16 226.67-52.96L226.67-52.96Q227.36-53.79 228.13-54.49Q228.89-55.18 229.59-55.88L229.59-55.88Q234.59-60.47 239.60-65.26Q244.60-70.06 249.60-74.50L249.60-74.50Q252.25-76.73 253.98-76.52Q255.72-76.31 258.08-74.23L258.08-74.23Q259.20-73.39 259.68-72.14Q260.17-70.89 259.47-69.36L259.47-69.36Q258.36-66.86 257.46-64.50Q256.55-62.13 255.44-59.77L255.44-59.77Q253.08-53.79 250.65-48.30Q248.21-42.81 245.99-37.11L245.99-37.11Q256.00-45.87 264.89-55.25Q273.79-64.64 282.48-73.81Q291.17-82.98 300.20-91.60Q309.24-100.22 319.66-107.31L319.66-107.31Q321.19-108.14 322.79-108.49Q324.39-108.84 325.92-107.31L325.92-107.31Q327.86-105.78 328.97-104.11Q330.09-102.44 329.25-99.94L329.25-99.94Q324.11-87.57 317.78-75.69Q311.46-63.80 305.69-51.71Q299.92-39.62 295.54-27.17Q291.17-14.73 290.05-1.25L290.05-1.25Q283.66-2.50 281.50-6.53Q279.35-10.56 279.84-16.33Q280.32-22.10 282.76-28.77Q285.19-35.45 288.11-41.84L288.11-41.84Q295.20-57.41 302.98-72.00Q310.76-86.60 319.10-100.08L319.10-100.08Q309.93-93.96 301.45-85.42Q292.97-76.87 284.77-67.62Q276.57-58.38 268.30-49.28Q260.03-40.17 251.13-32.67L251.13-32.67Q249.19-31.14 247.38-30.79Q245.57-30.44 243.21-31.97L243.21-31.97Q240.99-33.36 240.29-35.10Q239.60-36.84 239.87-39.06L239.87-39.06Q241.54-45.04 243.84-50.39Q246.13-55.74 248.49-61.02L248.49-61.02Q249.47-63.52 249.53-64.36Q249.60-65.19 248.98-64.98Q248.35-64.77 247.31-63.80Q246.27-62.83 245.02-61.58ZM334.95-18.77L334.95-18.77Q335.78-17.65 336.48-16.75Q337.17-15.85 338.01-14.73L338.01-14.73Q335.64-13.21 331.89-10.70Q328.14-8.20 324.59-5.14Q321.05-2.08 318.83 1.18Q316.60 4.45 317.44 7.51L317.44 7.51Q327.44 7.92 338.49 4.93Q349.54 1.95 360.04-3.41Q370.53-8.76 379.71-15.71Q388.88-22.66 395.28-30.02L395.28-30.02Q397.92-33.36 400.00-37.39L400.00-37.39Q396.81-38.50 392.36-38.57Q387.91-38.64 384.02-38.23L384.02-38.23Q371.09-36.84 359.07-35.51Q347.04-34.19 335.09-32.80L335.09-32.80Q330.92-32.53 327.51-32.73Q324.11-32.94 321.26-34.05Q318.41-35.17 315.91-37.32Q313.40-39.48 311.04-43.09L311.04-43.09Q309.65-46.01 310.49-48.86Q311.32-51.71 312.99-54.07L312.99-54.07Q318.96-61.99 327.93-68.87Q336.90-75.76 347.39-81.52Q357.88-87.29 369.07-91.88Q380.26-96.47 390.62-99.73Q400.98-103.00 409.66-104.95Q418.35-106.89 423.91-107.31L423.91-107.31Q430.44-107.86 434.75-104.11L434.75-104.11Q436.84-102.30 438.78-99.45Q440.73-96.61 441.42-93.96L441.42-93.96Q441.98-91.18 439.76-88.27L439.76-88.27Q434.89-82.43 427.73-77.28Q420.57-72.14 412.93-67.83Q405.28-63.52 397.99-60.26Q390.69-56.99 385.55-54.91L385.55-54.91Q383.74-54.21 382.63-53.93Q381.51-53.65 380.54-53.93Q379.57-54.21 378.53-55.18Q377.48-56.16 375.95-57.82L375.95-57.82Q382.90-61.99 389.99-65.96Q397.08-69.92 403.96-74.30Q410.84-78.67 417.31-83.54Q423.77-88.40 429.61-94.52L429.61-94.52Q414.74-92.57 399.93-88.13Q385.13-83.68 371.16-77.01Q357.19-70.33 344.61-61.72Q332.03-53.10 321.61-43.09L321.61-43.09Q329.67-41.98 337.94-42.33Q346.21-42.67 354.62-43.58Q363.03-44.48 371.30-45.31Q379.57-46.15 387.63-46.15L387.63-46.15Q393.61-46.01 398.54-43.99Q403.48-41.98 405.70-36.42L405.70-36.42Q406.53-33.64 405.14-30.58Q403.75-27.52 401.39-24.74L401.39-24.74Q395.41-17.65 386.10-10.77Q376.79-3.89 366.22 1.60Q355.66 7.09 344.96 10.63Q334.25 14.18 325.50 14.60L325.50 14.60Q322.86 14.87 319.94 13.76Q317.02 12.65 314.86 10.63Q312.71 8.62 311.74 6.05Q310.76 3.48 311.88 0.97L311.88 0.97Q313.13-1.95 315.56-4.73Q317.99-7.51 321.12-9.94Q324.25-12.37 327.79-14.60Q331.34-16.82 334.95-18.77Z"/></g></svg>